<?xml version="1.0" encoding="UTF-8" standalone="no" ?>
<!DOCTYPE svg PUBLIC "-//W3C//DTD SVG 1.1//EN" "http://www.w3.org/Graphics/SVG/1.1/DTD/svg11.dtd">
<svg xmlns="http://www.w3.org/2000/svg" xmlns:xlink="http://www.w3.org/1999/xlink" version="1.1" width="3.5in" height="2in" viewBox="0 0 251.99998999999997 144" xml:space="preserve">
<desc>Created with Fabric.js 5.3.0</desc>
<defs>
</defs>
<g transform="matrix(0.4337117035 0 0 0.470680915 126.1335528902 72)" id="n07VYdEOV0yQK6O0R_yCe"  >
<path style="stroke: rgb(0,0,0); stroke-width: 0; stroke-dasharray: none; stroke-linecap: butt; stroke-dashoffset: 0; stroke-linejoin: miter; stroke-miterlimit: 4; fill: rgb(69,69,69); fill-rule: nonzero; opacity: 1;"  transform=" translate(-313.87236, -164.824735)" d="M 620.04091 0 C 624.29561 0 627.74473 3.44912 627.74473 7.70382 L 627.74473 28.61234 C 627.74473 28.61443 627.74473 28.61652 627.74473 28.6186 L 627.74473 301.03088 C 627.74473 301.03297000000003 627.74473 301.03506000000004 627.74473 301.03714 L 627.74473 321.94566000000003 C 627.74473 326.20036000000005 624.29561 329.64948000000004 620.04091 329.64948000000004 L 599.1323900000001 329.64948000000004 C 599.1299700000001 329.64948000000004 599.1275600000001 329.64948000000004 599.1251400000001 329.64948000000004 C 510.9421700000001 329.64948000000004 28.612800000000107 329.64948000000004 28.612330000000156 329.64948000000004 L 7.703810000000157 329.64948000000004 C 3.4491100000001573 329.64948000000004 -0.000009999999843302021 326.20036000000005 -0.000009999999843302021 321.94566000000003 C -0.000009999999843302021 321.94326 -0.000009999999843302021 301.03234000000003 -0.000009999999843302021 301.02994 C -0.000009999999843302021 301.02796 -0.000009999999843302021 28.614300000000014 -0.000009999999843302021 28.61232000000001 L -0.000009999999843302021 7.703810000000011 C -0.000009999999843302021 3.4491100000000117 3.449110000000157 -0.000009999999988963282 7.703810000000157 -0.000009999999988963282 C 7.706170000000157 -0.000009999999988963282 28.617050000000155 -0.000009999999988963282 28.61941000000016 -0.000009999999988963282 L 609.5866400000001 -0.000009999999988963282 L 609.5866400000001 -0.000009999999988963282 z" stroke-linecap="round" />
</g>
<g transform="matrix(0.4009949067 0 0 0.4009949067 126.1335528902 42.3411595106)" id="vAaKsPBuHsGMpMz-xguxi"  >
<path style="stroke: rgb(121,43,112); stroke-width: 0; stroke-dasharray: none; stroke-linecap: butt; stroke-dashoffset: 0; stroke-linejoin: miter; stroke-miterlimit: 4; fill: rgb(98,225,138); fill-rule: nonzero; opacity: 1;"  transform=" translate(-44.71476, -38.948525)" d="M 8.75923 8.92352 C 10.73925 6.94349 13.86413 6.80607 16.00307 8.51126 L 22.91855 1.5957800000000004 C 25.04624 -0.5319199999999995 28.495919999999998 -0.5319199999999995 30.62362 1.5957800000000004 L 34.66266 5.63482 C 36.58034 7.5525 36.58034 10.66168 34.66266 12.579360000000001 L 27.39139 19.850630000000002 L 44.71476 37.17400000000001 L 43.78817 38.100590000000004 L 44.71477 37.17400000000001 L 46.56796 39.027190000000004 L 44.71477 40.880390000000006 L 42.86157 39.027190000000004 L 42.86157 39.027190000000004 L 44.71476 40.88038 L 40.998689999999996 44.596450000000004 L 40.9987 44.596450000000004 L 39.243159999999996 46.35199000000001 L 39.243159999999996 46.35199000000001 L 13.554329999999997 72.04082000000001 L 17.270399999999995 75.75689000000001 L 42.959219999999995 50.06807000000001 L 42.959219999999995 50.06807000000001 L 48.43082999999999 44.596460000000015 L 48.43081999999999 44.59645000000001 L 50.28401999999999 42.743260000000014 L 52.039559999999994 44.49880000000002 L 50.18635999999999 46.351990000000015 L 50.18637 46.35200000000002 L 46.47031 50.06806000000002 L 72.15914 75.75689000000001 L 75.87521 72.04082000000001 L 50.18638 46.351990000000015 L 52.03958 44.49880000000002 L 50.28404 42.743260000000014 L 67.6074 25.419900000000013 L 63.891329999999996 21.70383000000001 L 46.567969999999995 39.02719000000001 L 44.714769999999994 37.17399000000001 L 62.03814 19.85062000000001 L 54.76687 12.579350000000009 C 52.84919 10.661670000000008 52.84919 7.552490000000009 54.76687 5.634810000000009 L 58.80591 1.5957700000000088 C 60.933609999999994 -0.5319299999999911 64.38329 -0.5319299999999911 66.51098 1.5957700000000088 L 73.42646 8.511250000000008 C 75.56540000000001 6.8060600000000075 78.69028 6.943480000000007 80.67030000000001 8.923510000000007 L 80.67030000000001 8.923530000000007 C 82.56912000000001 10.822350000000007 82.58779000000001 13.889340000000008 80.72633000000002 15.811140000000005 L 87.99126000000001 23.076070000000005 C 89.90894000000002 24.993750000000006 89.90894000000002 28.102930000000004 87.99126000000001 30.020610000000005 L 83.95222000000001 34.059650000000005 C 81.82452 36.18735 78.37484 36.18735 76.24715 34.059650000000005 L 69.36294000000001 27.175440000000005 L 52.03958000000001 44.4988 L 76.89751000000001 69.35673 C 77.81841000000001 70.27763 78.33577000000001 71.52665 78.33577000000001 72.829 C 78.33577000000001 74.13135 77.81841000000001 75.38037 76.89751000000001 76.30126999999999 C 74.76982000000001 78.42896999999999 71.32014000000001 78.42896999999999 69.19244 76.30126999999999 L 44.71477 51.823599999999985 L 20.237090000000002 76.30127999999999 C 18.10939 78.42898 14.659710000000002 78.42898 12.532020000000003 76.30127999999999 C 11.611120000000003 75.38037999999999 11.093760000000003 74.13135999999999 11.093760000000003 72.82901 C 11.093760000000003 71.52665999999999 11.611120000000003 70.27763999999999 12.532020000000003 69.35674 L 37.38996 44.4988 L 37.38996 44.4988 L 37.38995 44.498810000000006 L 20.06658 27.175440000000005 L 13.182369999999999 34.059650000000005 C 11.05468 36.18735 7.604999999999999 36.18735 5.477299999999999 34.059650000000005 L 1.4382599999999988 30.020610000000005 C -0.4794200000000013 28.102930000000004 -0.4794200000000013 24.993750000000006 1.4382599999999988 23.076070000000005 L 8.70319 15.811140000000005 C 6.841729999999999 13.889340000000006 6.860399999999999 10.822350000000005 8.75922 8.923530000000007 z M 42.86156 39.0272 L 25.538189999999997 21.70383 L 21.822119999999998 25.4199 L 39.145489999999995 42.743269999999995 z M 10.45828 14.05605 L 14.17435 10.33998 L 13.30226 9.46789 L 9.58619 13.18396 z M 79.84334 13.18397 L 76.12727 9.4679 L 75.25518 10.33999 L 78.97125 14.05606 z" stroke-linecap="round" />
</g>
<g transform="matrix(0.4009949067 0 0 0.4009949067 94.9202278887 88.2682051711)" id="AQWwH5lZjfsh1lEqVSfdD"  >
<path style="stroke: rgb(1,106,248); stroke-width: 0; stroke-dasharray: none; stroke-linecap: butt; stroke-dashoffset: 0; stroke-linejoin: miter; stroke-miterlimit: 4; fill: rgb(255,255,255); fill-rule: nonzero; opacity: 1;"  transform=" translate(-36.801235, -41.77019)" d="M 0 0 L 19.25466 0 L 19.25466 0.00001 L 37.25218 0.00001 L 37.25218 0 C 57.317530000000005 0 73.60247000000001 18.71304 73.60247000000001 41.77018 C 73.60247000000001 64.82732 57.31754000000001 83.54036 37.25218000000001 83.54036 L 37.25218000000001 83.54038000000001 L 19.25465000000001 83.54038000000001 L 19.25465000000001 83.54037000000001 L 7.105427357601002e-15 83.54037000000001 z M 19.25466 21.05978 C 12.067790000000002 25.16617 7.220500000000001 32.90554 7.220500000000001 41.770179999999996 C 7.220500000000001 32.905539999999995 12.067800000000002 25.166169999999997 19.25466 21.059779999999996 L 19.25466 65.60559 L 30.728080000000002 65.60559 L 30.728080000000002 65.60558 C 43.51975 65.60558 53.901390000000006 54.92732 53.901390000000006 41.77018 C 53.901390000000006 28.613040000000005 43.519740000000006 17.934780000000003 30.728080000000006 17.934780000000003 L 19.254660000000005 17.934780000000003 z" stroke-linecap="round" />
</g>
<g transform="matrix(0.4009949067 0 0 0.4009949067 126.1335528902 88.2681997055)" id="-nPTs5Y2UfotOQR5rhxJ1"  >
<path style="stroke: rgb(0,0,0); stroke-width: 0; stroke-dasharray: none; stroke-linecap: butt; stroke-dashoffset: 0; stroke-linejoin: miter; stroke-miterlimit: 4; fill: rgb(255,255,255); fill-rule: nonzero; opacity: 1;"  transform=" translate(-31.81326, -41.770185)" d="M 0 65.52796 L 0 49.64627999999999 L 0.2241 49.64627999999999 L 36.04751 0.000009999999988963282 L 36.04751 -1.1036719024045023e-14 L 55.060520000000004 -1.1036719024045023e-14 L 55.060520000000004 49.64627999999998 L 63.626520000000006 49.64627999999998 L 63.626520000000006 65.52795999999998 L 55.060520000000004 65.52795999999998 L 55.060520000000004 83.54036999999998 L 36.04751 83.54036999999998 L 36.04751 65.52795999999998 z M 36.04751 26.08697 L 20.176570000000005 49.646280000000004 L 36.04751 49.646280000000004 z" stroke-linecap="round" />
</g>
<g transform="matrix(0.4009949067 0 0 0.4009949067 157.5055624193 88.2681997055)" id="gtDA0ROsHT_l4GLcKHxNq"  >
<path style="stroke: rgb(160,191,71); stroke-width: 0; stroke-dasharray: none; stroke-linecap: butt; stroke-dashoffset: 0; stroke-linejoin: miter; stroke-miterlimit: 4; fill: rgb(255,255,255); fill-rule: nonzero; opacity: 1;"  transform=" translate(-36.665195, -43.29192)" d="M 20.18634 43.26088 C 20.18634 57.06088 31.247210000000003 68.26088 44.875780000000006 68.26088 C 51.10878 68.26088 56.80471000000001 65.9182 61.151070000000004 62.05555 L 73.33039000000001 75.92123 C 65.55207000000001 82.56063999999999 55.38073000000001 86.58384 44.25466000000001 86.58384 C 19.826090000000008 86.58384 7.105427357601002e-15 67.18906 7.105427357601002e-15 43.29192 C 7.105427357601002e-15 19.394779999999997 19.826090000000008 0 44.25466000000001 0 C 55.37329000000001 0 65.53848 4.01783 73.31479000000002 10.6493 L 61.166370000000015 24.4798 C 56.81807000000001 20.60904 51.116090000000014 18.26086 44.87577000000002 18.26086 C 31.247200000000017 18.26086 20.186330000000016 29.46086 20.186330000000016 43.26086 z" stroke-linecap="round" />
</g>
</svg>